<?xml version="1.0" encoding="UTF-8" standalone="no"?>
<!-- Created with Inkscape (http://www.inkscape.org/) -->

<svg
   xmlns:dc="http://purl.org/dc/elements/1.1/"
   xmlns:cc="http://creativecommons.org/ns#"
   xmlns:rdf="http://www.w3.org/1999/02/22-rdf-syntax-ns#"
   xmlns:svg="http://www.w3.org/2000/svg"
   xmlns="http://www.w3.org/2000/svg"
   xmlns:xlink="http://www.w3.org/1999/xlink"
   xmlns:sodipodi="http://sodipodi.sourceforge.net/DTD/sodipodi-0.dtd"
   xmlns:inkscape="http://www.inkscape.org/namespaces/inkscape"
   version="1.1"
   width="573.42682"
   height="477.75995"
   id="model2a"
   inkscape:version="0.48.4 r9939"
   sodipodi:docname="arm-move.svg">
  <sodipodi:namedview
     pagecolor="#ffffff"
     bordercolor="#666666"
     borderopacity="1"
     objecttolerance="10"
     gridtolerance="10"
     guidetolerance="10"
     inkscape:pageopacity="0"
     inkscape:pageshadow="2"
     inkscape:window-width="1024"
     inkscape:window-height="691"
     id="namedview81"
     showgrid="false"
     inkscape:zoom="1.3971636"
     inkscape:cx="249.49515"
     inkscape:cy="181.74598"
     inkscape:window-x="0"
     inkscape:window-y="25"
     inkscape:window-maximized="1"
     inkscape:current-layer="model2a" />
  <defs
     id="defs43">
    <marker
       refX="0"
       refY="0"
       orient="auto"
       id="Arrow1Lend"
       style="overflow:visible">
      <path
         d="M 0,0 5,-5 -12.5,0 5,5 0,0 z"
         transform="matrix(-0.8,0,0,-0.8,-10,0)"
         id="path3884"
         style="fill-rule:evenodd;stroke:#000000;stroke-width:1pt" />
    </marker>
    <marker
       refX="0"
       refY="0"
       orient="auto"
       id="Arrow1Lend-6"
       style="overflow:visible">
      <path
         d="M 0,0 5,-5 -12.5,0 5,5 0,0 z"
         transform="matrix(-0.8,0,0,-0.8,-10,0)"
         id="path3884-2"
         style="fill-rule:evenodd;stroke:#000000;stroke-width:1pt" />
    </marker>
  </defs>
  <metadata
     id="metadata3219">
    <rdf:RDF>
      <cc:Work
         rdf:about="">
        <dc:format>image/svg+xml</dc:format>
        <dc:type
           rdf:resource="http://purl.org/dc/dcmitype/StillImage" />
        <dc:title />
      </cc:Work>
    </rdf:RDF>
  </metadata>
  <script
     xlink:href="arm-move.js"
     id="script39"
     type="text/javascript" />
  <rect
     width="52.343601"
     height="52.343601"
     x="230.89488"
     y="242.35736"
     id="rect3217"
     style="color:#000000;fill:#816647;stroke:#000000;stroke-width:0.56371557999999999px;stroke-linecap:butt;stroke-linejoin:miter;stroke-miterlimit:4;stroke-dasharray:none;stroke-dashoffset:0;enable-background:accumulate" />
  <rect
     width="52.343601"
     height="52.343601"
     x="290.64151"
     y="252.50639"
     id="rect3217-4"
     style="color:#000000;fill:#816647;stroke:#000000;stroke-width:0.56371558px;stroke-linecap:butt;stroke-linejoin:miter;stroke-miterlimit:4;stroke-dasharray:none;stroke-dashoffset:0;enable-background:accumulate" />
  <rect
     width="52.343601"
     height="52.343601"
     x="432.54974"
     y="322.56033"
     id="rect3217-4-8"
     style="color:#000000;fill:#edd400;stroke:#000000;stroke-width:0.56371558px;stroke-linecap:butt;stroke-linejoin:miter;stroke-miterlimit:4;stroke-dasharray:none;stroke-dashoffset:0;enable-background:accumulate" />
  <rect
     width="52.343601"
     height="52.343601"
     x="230.26181"
     y="403.59421"
     id="rect3217-0"
     style="color:#000000;fill:#816647;stroke:#000000;stroke-width:0.56371557999999999px;stroke-linecap:butt;stroke-linejoin:miter;stroke-miterlimit:4;stroke-dasharray:none;stroke-dashoffset:0;enable-background:accumulate" />
  <path
     d="m 363.59974,350.93817 c 0,53.81495 -43.6259,97.44257 -97.44254,97.44257 -53.81496,0 -97.44257,-43.62593 -97.44257,-97.44257 0,-53.81496 43.62591,-97.44257 97.44257,-97.44257 53.81493,0 97.44254,43.62594 97.44254,97.44257 z"
     id="path3293-1-6-4-8"
     style="color:#000000;fill:#cc0000;fill-opacity:0.0813397;stroke:#000000;stroke-width:0.56370801px;stroke-linecap:butt;stroke-linejoin:miter;stroke-miterlimit:4;stroke-dasharray:none;stroke-dashoffset:0;enable-background:accumulate" />
  <path
     d="m 471.84442,350.93817 c 0,53.81495 -43.62591,97.44257 -97.44254,97.44257 -53.81496,0 -97.44257,-43.62593 -97.44257,-97.44257 0,-53.81496 43.62591,-97.44257 97.44257,-97.44257 53.81493,0 97.44254,43.62594 97.44254,97.44257 z"
     id="path3293-1-6-4-78"
     style="color:#000000;fill:#cc0000;fill-opacity:0.0813397;stroke:#000000;stroke-width:0.56370801px;stroke-linecap:butt;stroke-linejoin:miter;stroke-miterlimit:4;stroke-dasharray:none;stroke-dashoffset:0;enable-background:accumulate" />
  <rect
     width="52.343601"
     height="52.343601"
     x="415.55557"
     y="265.30643"
     id="rect3217-4-87-0"
     style="color:#000000;fill:#8ae234;stroke:#000000;stroke-width:0.56371558px;stroke-linecap:butt;stroke-linejoin:miter;stroke-miterlimit:4;stroke-dasharray:none;stroke-dashoffset:0;enable-background:accumulate" />
  <rect
     width="189.02646"
     height="33.505695"
     x="33.480137"
     y="442.38782"
     id="rect2997-6"
     style="fill:#eeeeee;stroke:#000000;stroke-width:0.56371558" />
  <rect
     width="190.07608"
     height="34.555508"
     x="27.2274"
     y="215.98251"
     id="rect2997"
     style="fill:#eeeeee;stroke:#000000;stroke-width:0.56371558" />
  <path
     d="m 293.94235,350.93738 c 0,15.34413 -12.4388,27.7829 -27.78292,27.7829 -15.34412,0 -27.7829,-12.43877 -27.7829,-27.7829 0,-15.34415 12.43878,-27.78293 27.7829,-27.78293 15.34412,0 27.78292,12.43878 27.78292,27.78293 z"
     id="armbase1"
     style="color:#000000;fill:#cc0000;stroke:#000000;stroke-width:0.56370801px;stroke-linecap:butt;stroke-linejoin:miter;stroke-miterlimit:4;stroke-dasharray:none;stroke-dashoffset:0;enable-background:accumulate" />
  <path
     d="m 402.18702,350.93738 c 0,15.34413 -12.4388,27.7829 -27.78292,27.7829 -15.34413,0 -27.78291,-12.43877 -27.78291,-27.7829 0,-15.34415 12.43878,-27.78293 27.78291,-27.78293 15.34412,0 27.78292,12.43878 27.78292,27.78293 z"
     id="armbase2"
     style="color:#000000;fill:#cc0000;stroke:#000000;stroke-width:0.56370801px;stroke-linecap:butt;stroke-linejoin:miter;stroke-miterlimit:4;stroke-dasharray:none;stroke-dashoffset:0;enable-background:accumulate" />
  <rect
     width="535.87103"
     height="204.36374"
     x="36.320469"
     y="1.2353209"
     id="rect3367"
     style="color:#000000;fill:#ffffff;fill-rule:nonzero;stroke:#0e232e;stroke-width:2.47064185;enable-background:accumulate" />
  <g
     transform="translate(329.95286,72.493688)"
     id="g3052">
    <rect
       width="27.154175"
       height="27.154175"
       x="20.212772"
       y="52.222496"
       id="rect3217-4-87-1-5-7"
       style="color:#000000;fill:#816647;stroke:#000000;stroke-width:0.29243746px;stroke-linecap:butt;stroke-linejoin:miter;stroke-miterlimit:4;stroke-dasharray:none;stroke-dashoffset:0;enable-background:accumulate" />
    <rect
       width="27.154175"
       height="27.154175"
       x="20.212772"
       y="10.020561"
       id="rect3217-4-87-3-9-6-5-9"
       style="color:#000000;fill:#8ae234;stroke:#000000;stroke-width:0.29243746px;stroke-linecap:butt;stroke-linejoin:miter;stroke-miterlimit:4;stroke-dasharray:none;stroke-dashoffset:0;enable-background:accumulate" />
    <rect
       width="27.154175"
       height="27.154175"
       x="20.643818"
       y="91.109474"
       id="rect3217-4-5-4-5-4-7-3"
       style="color:#000000;fill:#edd400;stroke:#000000;stroke-width:0.29243746px;stroke-linecap:butt;stroke-linejoin:miter;stroke-miterlimit:4;stroke-dasharray:none;stroke-dashoffset:0;enable-background:accumulate" />
    <text
       x="143.99181"
       y="34.112946"
       id="text3347"
       xml:space="preserve"
       style="font-size:29.64772034px;font-style:normal;font-variant:normal;font-weight:normal;font-stretch:normal;text-align:center;line-height:125%;writing-mode:lr-tb;text-anchor:middle;color:#000000;fill:#0e232e;fill-rule:nonzero;enable-background:accumulate;font-family:LMRoman12"><tspan
         x="143.99181"
         y="34.112946"
         id="tspan3349">パーツトレイ</tspan></text>
    <text
       x="115.37023"
       y="115.56214"
       id="text3351"
       xml:space="preserve"
       style="font-size:29.64772034px;font-style:normal;font-variant:normal;font-weight:normal;font-stretch:normal;text-align:center;line-height:125%;writing-mode:lr-tb;text-anchor:middle;color:#000000;fill:#0e232e;fill-rule:nonzero;enable-background:accumulate;font-family:LMRoman12"><tspan
         x="115.37023"
         y="115.56214"
         id="tspan3353">特殊機械</tspan></text>
    <text
       x="131.5256"
       y="75.452118"
       id="text3355"
       xml:space="preserve"
       style="font-size:29.64772034px;font-style:normal;font-variant:normal;font-weight:normal;font-stretch:normal;text-align:center;line-height:125%;writing-mode:lr-tb;text-anchor:middle;color:#000000;fill:#0e232e;fill-rule:nonzero;enable-background:accumulate;font-family:LMRoman12"><tspan
         x="131.5256"
         y="75.452118"
         id="tspan3357">組み立て台</tspan></text>
  </g>
  <rect
     width="83.736313"
     height="16.070662"
     x="373.89114"
     y="343.15512"
     id="arm2"
     style="opacity:0.98999999;fill:#cccccf;stroke:#000000;stroke-width:0.47366035;stroke-miterlimit:4;stroke-dasharray:none" />
  <rect
     width="83.736313"
     height="16.070662"
     x="182.30624"
     y="343.57056"
     id="arm1"
     style="opacity:0.98999999;fill:#cccccf;stroke:#000000;stroke-width:0.47366035;stroke-miterlimit:4;stroke-dasharray:none" />
  <g
     transform="translate(-182.39017,85.526261)"
     id="g3045">
    <g
       transform="translate(105.15942,-77.380902)"
       id="g3041">
      <path
         d="m 263.16119,110.44887 c 0,11.90744 -9.65283,21.56025 -21.56027,21.56025 -11.90744,0 -21.56026,-9.65281 -21.56026,-21.56025 0,-11.907463 9.65282,-21.560282 21.56026,-21.560282 11.90744,0 21.56027,9.652819 21.56027,21.560282 z"
         id="armbase2-3"
         style="color:#000000;fill:#cc0000;stroke:#000000;stroke-width:0.43745211px;stroke-linecap:butt;stroke-linejoin:miter;stroke-miterlimit:4;stroke-dasharray:none;stroke-dashoffset:0;enable-background:accumulate" />
      <rect
         width="64.98156"
         height="12.471252"
         x="241.20285"
         y="104.40963"
         id="arm2-2"
         style="opacity:0.98999999;fill:#cccccf;stroke:#000000;stroke-width:0.36757275;stroke-miterlimit:4;stroke-dasharray:none" />
    </g>
    <text
       x="358.48004"
       y="87.641853"
       id="text3037"
       xml:space="preserve"
       style="font-size:30px;font-style:normal;font-variant:normal;font-weight:normal;font-stretch:normal;text-align:center;line-height:125%;writing-mode:lr-tb;text-anchor:middle;fill:#000000;fill-opacity:1;stroke:none;font-family:Nimbus Roman No9 L;-inkscape-font-specification:Nimbus Roman No9 L"><tspan
         x="358.48004"
         y="87.641853"
         id="tspan3039">ロボットアーム</tspan></text>
  </g>
  <path
     d="m 63.018665,4.330626 a 5,5 0 1 1 -10,0 5,5 0 1 1 10,0 z"
     transform="matrix(3.40482,0,0,3.40482,-47.667807,217.88417)"
     id="path4055"
     style="opacity:0.98999999;fill:#ffff00;fill-opacity:1;stroke:#000000;stroke-width:0.5;stroke-miterlimit:4;stroke-dasharray:none" />
  <path
     d="m 63.018665,4.330626 a 5,5 0 1 1 -10,0 5,5 0 1 1 10,0 z"
     transform="matrix(3.40482,0,0,3.40482,-59.667807,217.88417)"
     id="path4055-3"
     style="opacity:0.98999999;fill:#ffff00;fill-opacity:1;stroke:#000000;stroke-width:0.5;stroke-miterlimit:4;stroke-dasharray:none" />
  <path
     d="m 63.018665,4.330626 a 5,5 0 1 1 -10,0 5,5 0 1 1 10,0 z"
     transform="matrix(3.40482,0,0,3.40482,-71.667807,217.88417)"
     id="path4055-1"
     style="opacity:0.98999999;fill:#ffff00;fill-opacity:1;stroke:#000000;stroke-width:0.5;stroke-miterlimit:4;stroke-dasharray:none" />
  <path
     d="m 63.018665,4.330626 a 5,5 0 1 1 -10,0 5,5 0 1 1 10,0 z"
     transform="matrix(3.40482,0,0,3.40482,-83.667807,217.88417)"
     id="path4055-3-5"
     style="opacity:0.98999999;fill:#ffff00;fill-opacity:1;stroke:#000000;stroke-width:0.5;stroke-miterlimit:4;stroke-dasharray:none" />
  <path
     d="m 63.018665,4.330626 a 5,5 0 1 1 -10,0 5,5 0 1 1 10,0 z"
     transform="matrix(3.40482,0,0,3.40482,-95.667807,217.88417)"
     id="path4055-5"
     style="opacity:0.98999999;fill:#ffff00;fill-opacity:1;stroke:#000000;stroke-width:0.5;stroke-miterlimit:4;stroke-dasharray:none" />
  <path
     d="m 63.018665,4.330626 a 5,5 0 1 1 -10,0 5,5 0 1 1 10,0 z"
     transform="matrix(3.40482,0,0,3.40482,-107.66781,217.88417)"
     id="path4055-3-4"
     style="opacity:0.98999999;fill:#ffff00;fill-opacity:1;stroke:#000000;stroke-width:0.5;stroke-miterlimit:4;stroke-dasharray:none" />
  <path
     d="m 63.018665,4.330626 a 5,5 0 1 1 -10,0 5,5 0 1 1 10,0 z"
     transform="matrix(3.40482,0,0,3.40482,-119.66781,217.88417)"
     id="path4055-1-3"
     style="opacity:0.98999999;fill:#ffff00;fill-opacity:1;stroke:#000000;stroke-width:0.5;stroke-miterlimit:4;stroke-dasharray:none" />
  <path
     d="m 63.018665,4.330626 a 5,5 0 1 1 -10,0 5,5 0 1 1 10,0 z"
     transform="matrix(3.40482,0,0,3.40482,-131.66781,217.88417)"
     id="path4055-3-5-5"
     style="opacity:0.98999999;fill:#ffff00;fill-opacity:1;stroke:#000000;stroke-width:0.5;stroke-miterlimit:4;stroke-dasharray:none" />
  <path
     d="m 63.018665,4.330626 a 5,5 0 1 1 -10,0 5,5 0 1 1 10,0 z"
     transform="matrix(3.40482,0,0,3.40482,-143.66781,217.88417)"
     id="path4055-8"
     style="opacity:0.98999999;fill:#ffff00;fill-opacity:1;stroke:#000000;stroke-width:0.5;stroke-miterlimit:4;stroke-dasharray:none" />
  <path
     d="m 63.018665,4.330626 a 5,5 0 1 1 -10,0 5,5 0 1 1 10,0 z"
     transform="matrix(3.40482,0,0,3.40482,-155.66781,217.88417)"
     id="path4055-3-52"
     style="opacity:0.98999999;fill:#ffff00;fill-opacity:1;stroke:#000000;stroke-width:0.5;stroke-miterlimit:4;stroke-dasharray:none" />
  <path
     d="m 63.018665,4.330626 a 5,5 0 1 1 -10,0 5,5 0 1 1 10,0 z"
     transform="matrix(3.40482,0,0,3.40482,-167.66781,217.88417)"
     id="path4055-1-8"
     style="opacity:0.98999999;fill:#ffff00;fill-opacity:1;stroke:#000000;stroke-width:0.5;stroke-miterlimit:4;stroke-dasharray:none" />
  <path
     d="m 63.018665,4.330626 a 5,5 0 1 1 -10,0 5,5 0 1 1 10,0 z"
     transform="matrix(3.40482,0,0,3.40482,-179.66781,217.88417)"
     id="path4055-3-5-8"
     style="opacity:0.98999999;fill:#ffff00;fill-opacity:1;stroke:#000000;stroke-width:0.5;stroke-miterlimit:4;stroke-dasharray:none" />
  <path
     d="M 20.25,0.50994873 A 20,20 0 0 1 -19.75,0.50994873 20,20 0 1 1 20.25,0.50994873 z"
     id="product"
     style="opacity:0.98999999;fill:#ffff00;fill-opacity:1;stroke:#000000;stroke-width:0.5;stroke-miterlimit:4;stroke-dasharray:none"
     inkscape:connector-curvature="0" />
  <text
     x="97.810165"
     y="288.83215"
     id="text3027"
     xml:space="preserve"
     style="font-size:24px;font-style:normal;font-variant:normal;font-weight:normal;font-stretch:normal;text-align:center;line-height:125%;writing-mode:lr-tb;text-anchor:middle;fill:#000000;fill-opacity:1;stroke:none;font-family:Nimbus Roman No9 L;-inkscape-font-specification:Nimbus Roman No9 L"><tspan
       x="97.810165"
       y="288.83215"
       id="tspan3031">製品キュー</tspan></text>
  <path
     d="m 63.018665,4.330626 a 5,5 0 1 1 -10,0 5,5 0 1 1 10,0 z"
     transform="matrix(3.40482,0,0,3.40482,-29.660273,445.13966)"
     id="path4055-2"
     style="opacity:0.98999999;fill:#ffff00;fill-opacity:1;stroke:#000000;stroke-width:0.5;stroke-miterlimit:4;stroke-dasharray:none" />
  <path
     d="m 63.018665,4.330626 a 5,5 0 1 1 -10,0 5,5 0 1 1 10,0 z"
     transform="matrix(3.40482,0,0,3.40482,-41.660273,445.13966)"
     id="path4055-3-49"
     style="opacity:0.98999999;fill:#ffff00;fill-opacity:1;stroke:#000000;stroke-width:0.5;stroke-miterlimit:4;stroke-dasharray:none" />
  <path
     d="m 63.018665,4.330626 a 5,5 0 1 1 -10,0 5,5 0 1 1 10,0 z"
     transform="matrix(3.40482,0,0,3.40482,-53.660273,445.13966)"
     id="path4055-1-0"
     style="opacity:0.98999999;fill:#ffff00;fill-opacity:1;stroke:#000000;stroke-width:0.5;stroke-miterlimit:4;stroke-dasharray:none" />
  <path
     d="m 63.018665,4.330626 a 5,5 0 1 1 -10,0 5,5 0 1 1 10,0 z"
     transform="matrix(3.40482,0,0,3.40482,-65.660273,445.13966)"
     id="path4055-3-5-10"
     style="opacity:0.98999999;fill:#ffff00;fill-opacity:1;stroke:#000000;stroke-width:0.5;stroke-miterlimit:4;stroke-dasharray:none" />
  <path
     d="m 63.018665,4.330626 a 5,5 0 1 1 -10,0 5,5 0 1 1 10,0 z"
     transform="matrix(3.40482,0,0,3.40482,-77.660277,445.13966)"
     id="path4055-5-8"
     style="opacity:0.98999999;fill:#ffff00;fill-opacity:1;stroke:#000000;stroke-width:0.5;stroke-miterlimit:4;stroke-dasharray:none" />
  <path
     d="m 63.018665,4.330626 a 5,5 0 1 1 -10,0 5,5 0 1 1 10,0 z"
     transform="matrix(3.40482,0,0,3.40482,-89.660277,445.13966)"
     id="path4055-3-4-0"
     style="opacity:0.98999999;fill:#ffff00;fill-opacity:1;stroke:#000000;stroke-width:0.5;stroke-miterlimit:4;stroke-dasharray:none" />
  <path
     d="m 63.018665,4.330626 a 5,5 0 1 1 -10,0 5,5 0 1 1 10,0 z"
     transform="matrix(3.40482,0,0,3.40482,-101.66028,445.13966)"
     id="path4055-1-3-4"
     style="opacity:0.98999999;fill:#ffff00;fill-opacity:1;stroke:#000000;stroke-width:0.5;stroke-miterlimit:4;stroke-dasharray:none" />
  <path
     d="m 63.018665,4.330626 a 5,5 0 1 1 -10,0 5,5 0 1 1 10,0 z"
     transform="matrix(3.40482,0,0,3.40482,-113.66028,445.13966)"
     id="path4055-3-5-5-2"
     style="opacity:0.98999999;fill:#ffff00;fill-opacity:1;stroke:#000000;stroke-width:0.5;stroke-miterlimit:4;stroke-dasharray:none" />
  <path
     d="m 63.018665,4.330626 a 5,5 0 1 1 -10,0 5,5 0 1 1 10,0 z"
     transform="matrix(3.40482,0,0,3.40482,-125.66028,445.13966)"
     id="path4055-8-6"
     style="opacity:0.98999999;fill:#ffff00;fill-opacity:1;stroke:#000000;stroke-width:0.5;stroke-miterlimit:4;stroke-dasharray:none" />
  <path
     d="m 63.018665,4.330626 a 5,5 0 1 1 -10,0 5,5 0 1 1 10,0 z"
     transform="matrix(3.40482,0,0,3.40482,-137.66028,445.13966)"
     id="path4055-3-52-0"
     style="opacity:0.98999999;fill:#ffff00;fill-opacity:1;stroke:#000000;stroke-width:0.5;stroke-miterlimit:4;stroke-dasharray:none" />
  <path
     d="m 63.018665,4.330626 a 5,5 0 1 1 -10,0 5,5 0 1 1 10,0 z"
     transform="matrix(3.40482,0,0,3.40482,-149.66028,445.13966)"
     id="path4055-1-8-5"
     style="opacity:0.98999999;fill:#ffff00;fill-opacity:1;stroke:#000000;stroke-width:0.5;stroke-miterlimit:4;stroke-dasharray:none" />
  <path
     d="m 63.018665,4.330626 a 5,5 0 1 1 -10,0 5,5 0 1 1 10,0 z"
     transform="matrix(3.40482,0,0,3.40482,-161.66028,445.13966)"
     id="path4055-3-5-8-1"
     style="opacity:0.98999999;fill:#ffff00;fill-opacity:1;stroke:#000000;stroke-width:0.5;stroke-miterlimit:4;stroke-dasharray:none" />
  <text
     x="109.91093"
     y="421.72363"
     id="text3027-5"
     xml:space="preserve"
     style="font-size:24px;font-style:normal;font-variant:normal;font-weight:normal;font-stretch:normal;text-align:center;line-height:125%;writing-mode:lr-tb;text-anchor:middle;fill:#000000;fill-opacity:1;stroke:none;font-family:Nimbus Roman No9 L;-inkscape-font-specification:Nimbus Roman No9 L"><tspan
       x="109.91093"
       y="421.72363"
       id="tspan3031-4">完成した製品</tspan></text>
  <path
     d="m 61.283595,262.767 107.263625,0"
     id="path3107"
     style="fill:none;stroke:#000000;stroke-width:1.25509691px;stroke-linecap:butt;stroke-linejoin:miter;stroke-opacity:1;marker-end:url(#Arrow1Lend)" />
  <path
     d="m 159.58732,433.81952 -107.263619,0"
     id="path3107-6"
     style="fill:none;stroke:#000000;stroke-width:1.25509691px;stroke-linecap:butt;stroke-linejoin:miter;stroke-opacity:1;marker-end:url(#Arrow1Lend)" />
  <path
     d="M 164.29469,40.126451 A 17.0241,17.0241 0 0 1 130.24649,40.126451 17.0241,17.0241 0 1 1 164.29469,40.126451 z"
     id="path4055-3-5-1-8"
     style="opacity:0.98999999;fill:#ffff00;fill-opacity:1;stroke:#000000;stroke-width:1.70240998;stroke-miterlimit:4;stroke-dasharray:none"
     inkscape:connector-curvature="0" />
  <text
     x="213.61682"
     y="54.812233"
     id="text3066"
     xml:space="preserve"
     style="font-size:40px;font-style:normal;font-variant:normal;font-weight:normal;font-stretch:normal;text-align:center;line-height:125%;writing-mode:lr-tb;text-anchor:middle;fill:#000000;fill-opacity:1;stroke:none;font-family:Nimbus Roman No9 L;-inkscape-font-specification:Nimbus Roman No9 L"
     sodipodi:linespacing="125%"><tspan
       x="213.61682"
       y="54.812233"
       id="tspan3068"
       style="font-size:40px">製品</tspan></text>
  <text
     x="399.33099"
     y="56.441303"
     id="text3077"
     xml:space="preserve"
     style="font-size:40px;font-style:normal;font-variant:normal;font-weight:normal;font-stretch:normal;text-align:center;line-height:125%;writing-mode:lr-tb;text-anchor:middle;fill:#000000;fill-opacity:1;stroke:none;font-family:Nimbus Roman No9 L;-inkscape-font-specification:Nimbus Roman No9 L"
     sodipodi:linespacing="125%"><tspan
       x="399.33099"
       y="56.441303"
       id="tspan3079"
       style="font-size:40px">パーツ</tspan></text>
  <path
     style="opacity:0.98999999;fill:#b3defd;fill-opacity:0.86122448;stroke:#000000;stroke-width:2.16983151;stroke-miterlimit:4;stroke-dasharray:none"
     d="M 6.703536,0.27448297 C 7.486326,3.408003 8.269106,6.541513 9.051886,9.675033 6.148056,8.269033 3.253926,6.837693 0.34402596,5.447523 -2.7423442,4.564033 -5.8287142,3.680553 -8.9150842,2.797063 -6.2455342,0.98526297 -3.5588942,-0.80545703 -0.90002424,-2.630417 1.408286,-4.861547 3.716586,-7.092677 6.024896,-9.3238071 6.251106,-6.124377 6.477326,-2.924947 6.703536,0.27448297 z"
     id="p1"
     inkscape:connector-curvature="0" />
  <path
     d="M 322.03926,43.74744 324.38761,53.147982 315.73592,48.936557 306.42064,46.270016 314.39368,40.883145 321.36061,34.149143 z"
     id="path3118-3-0-0"
     style="opacity:0.98999999;fill:#b3defd;fill-opacity:0.86122448;stroke:#000000;stroke-width:2.16983151;stroke-miterlimit:4;stroke-dasharray:none"
     inkscape:connector-curvature="0" />
  <text
     xml:space="preserve"
     style="font-size:18px;font-style:normal;font-variant:normal;font-weight:normal;font-stretch:normal;text-align:center;line-height:125%;writing-mode:lr-tb;text-anchor:middle;fill:#000000;fill-opacity:1;stroke:none;font-family:Nimbus Roman No9 L;-inkscape-font-specification:Nimbus Roman No9 L"
     x="506.74094"
     y="397.59753"
     id="text3054"
     sodipodi:linespacing="125%"><tspan
       sodipodi:role="line"
       x="506.74094"
       y="397.59753"
       id="tspan3058">塗装専用</tspan></text>
  <text
     xml:space="preserve"
     style="font-size:18px;font-style:normal;font-variant:normal;font-weight:normal;font-stretch:normal;text-align:center;line-height:125%;writing-mode:lr-tb;text-anchor:middle;fill:#000000;fill-opacity:1;stroke:none;font-family:Nimbus Roman No9 L;-inkscape-font-specification:Nimbus Roman No9 L"
     x="356.43643"
     y="226.53668"
     id="text3060"
     sodipodi:linespacing="125%"><tspan
       sodipodi:role="line"
       id="tspan3062"
       x="356.43643"
       y="226.53668">組み立て</tspan><tspan
       sodipodi:role="line"
       x="356.43643"
       y="249.03668"
       id="tspan3064">専用</tspan></text>
  <text
     xml:space="preserve"
     style="font-size:18px;font-style:normal;font-variant:normal;font-weight:normal;font-stretch:normal;text-align:center;line-height:125%;writing-mode:lr-tb;text-anchor:middle;fill:#000000;fill-opacity:1;stroke:none;font-family:Nimbus Roman No9 L;-inkscape-font-specification:Nimbus Roman No9 L"
     x="279.13696"
     y="474.18127"
     id="text3068"
     sodipodi:linespacing="125%"><tspan
       sodipodi:role="line"
       id="tspan3070"
       x="279.13696"
       y="474.18127">搬出専用</tspan></text>
  <text
     xml:space="preserve"
     style="font-size:18px;font-style:normal;font-variant:normal;font-weight:normal;font-stretch:normal;text-align:center;line-height:125%;writing-mode:lr-tb;text-anchor:middle;fill:#000000;fill-opacity:1;stroke:none;font-family:Nimbus Roman No9 L;-inkscape-font-specification:Nimbus Roman No9 L"
     x="260.65146"
     y="233.26031"
     id="text3068-2"
     sodipodi:linespacing="125%"><tspan
       sodipodi:role="line"
       id="tspan3070-1"
       x="260.65146"
       y="233.26031">搬入専用</tspan></text>
</svg>
