<?xml version="1.0" encoding="UTF-8" standalone="no"?>
<!-- Created with Inkscape (http://www.inkscape.org/) -->

<svg
   xmlns:dc="http://purl.org/dc/elements/1.1/"
   xmlns:cc="http://creativecommons.org/ns#"
   xmlns:rdf="http://www.w3.org/1999/02/22-rdf-syntax-ns#"
   xmlns:svg="http://www.w3.org/2000/svg"
   xmlns="http://www.w3.org/2000/svg"
   xmlns:xlink="http://www.w3.org/1999/xlink"
   xmlns:sodipodi="http://sodipodi.sourceforge.net/DTD/sodipodi-0.dtd"
   xmlns:inkscape="http://www.inkscape.org/namespaces/inkscape"
   version="1.1"
   width="170"
   height="123.03835"
   id="model2a"
   inkscape:version="0.48.4 r9939"
   sodipodi:docname="model2a-products.svg">
  <sodipodi:namedview
     pagecolor="#ffffff"
     bordercolor="#666666"
     borderopacity="1"
     objecttolerance="10"
     gridtolerance="10"
     guidetolerance="10"
     inkscape:pageopacity="0"
     inkscape:pageshadow="2"
     inkscape:window-width="1024"
     inkscape:window-height="691"
     id="namedview81"
     showgrid="false"
     inkscape:zoom="2.7943272"
     inkscape:cx="149.29214"
     inkscape:cy="67.415335"
     inkscape:window-x="0"
     inkscape:window-y="25"
     inkscape:window-maximized="1"
     inkscape:current-layer="model2a"
     fit-margin-top="0"
     fit-margin-left="0"
     fit-margin-right="0"
     fit-margin-bottom="0" />
  <defs
     id="defs43">
    <marker
       refX="0"
       refY="0"
       orient="auto"
       id="Arrow1Lend"
       style="overflow:visible">
      <path
         d="M 0,0 5,-5 -12.5,0 5,5 0,0 z"
         transform="matrix(-0.8,0,0,-0.8,-10,0)"
         id="path3884"
         style="fill-rule:evenodd;stroke:#000000;stroke-width:1pt"
         inkscape:connector-curvature="0" />
    </marker>
    <marker
       refX="0"
       refY="0"
       orient="auto"
       id="Arrow1Lend-6"
       style="overflow:visible">
      <path
         d="M 0,0 5,-5 -12.5,0 5,5 0,0 z"
         transform="matrix(-0.8,0,0,-0.8,-10,0)"
         id="path3884-2"
         style="fill-rule:evenodd;stroke:#000000;stroke-width:1pt"
         inkscape:connector-curvature="0" />
    </marker>
  </defs>
  <metadata
     id="metadata3219">
    <rdf:RDF>
      <cc:Work
         rdf:about="">
        <dc:format>image/svg+xml</dc:format>
        <dc:type
           rdf:resource="http://purl.org/dc/dcmitype/StillImage" />
        <dc:title />
      </cc:Work>
    </rdf:RDF>
  </metadata>
  <script
     xlink:href="arm-move.js"
     type="text/javascript"
     id="script39" />
  <rect
     width="24.45414"
     height="24.45414"
     x="107.87061"
     y="12.900486"
     id="rect3217"
     style="color:#000000;fill:#816647;stroke:#000000;stroke-width:0.2633594px;stroke-linecap:butt;stroke-linejoin:miter;stroke-miterlimit:4;stroke-dasharray:none;stroke-dashoffset:0;enable-background:accumulate" />
  <rect
     width="24.45414"
     height="24.45414"
     x="107.57484"
     y="88.227905"
     id="rect3217-0"
     style="color:#000000;fill:#816647;stroke:#000000;stroke-width:0.2633594px;stroke-linecap:butt;stroke-linejoin:miter;stroke-miterlimit:4;stroke-dasharray:none;stroke-dashoffset:0;enable-background:accumulate" />
  <path
     d="M 169.86832,63.627798 C 169.86832,88.769336 149.48695,109.1515 124.34463,109.1515 99.203091,109.1515 78.820929,88.770116 78.820929,63.627798 78.820929,38.486259 99.202298,18.104096 124.34463,18.104096 149.48616,18.104096 169.86832,38.485475 169.86832,63.627798 z"
     id="path3293-1-6-4-8"
     style="color:#000000;fill:#cc0000;fill-opacity:0.0813397;stroke:#000000;stroke-width:0.26335588px;stroke-linecap:butt;stroke-linejoin:miter;stroke-miterlimit:4;stroke-dasharray:none;stroke-dashoffset:0;enable-background:accumulate"
     inkscape:connector-curvature="0" />
  <rect
     width="88.310318"
     height="15.653355"
     x="15.641417"
     y="106.3517"
     id="rect2997-6"
     style="fill:#eeeeee;stroke:#000000;stroke-width:0.2633594" />
  <rect
     width="88.800674"
     height="16.143812"
     x="12.720232"
     y="0.57854992"
     id="rect2997"
     style="fill:#eeeeee;stroke:#000000;stroke-width:0.2633594" />
  <path
     d="M 137.32543,63.627429 C 137.32543,70.79597 131.51422,76.607178 124.34567,76.607178 117.17713,76.607178 111.36592,70.79597 111.36592,63.627429 111.36592,56.458871 117.17713,50.647657 124.34567,50.647657 131.51422,50.647657 137.32543,56.458871 137.32543,63.627429 z"
     id="armbase1"
     style="color:#000000;fill:#cc0000;stroke:#000000;stroke-width:0.26335588px;stroke-linecap:butt;stroke-linejoin:miter;stroke-miterlimit:4;stroke-dasharray:none;stroke-dashoffset:0;enable-background:accumulate"
     inkscape:connector-curvature="0" />
  <rect
     width="39.120342"
     height="7.5079713"
     x="85.170731"
     y="60.185768"
     id="arm1"
     style="opacity:0.98999999;fill:#cccccf;stroke:#000000;stroke-width:0.22128697;stroke-miterlimit:4;stroke-dasharray:none" />
  <path
     d="M 77.972885,8.3556203 A 7.9534028,7.9534028 0 0 1 62.066082,8.3556203 7.9534028,7.9534028 0 1 1 77.972885,8.3556203 z"
     id="path4055"
     style="opacity:0.98999999;fill:#ffff00;fill-opacity:1;stroke:#000000;stroke-width:0.7953403;stroke-miterlimit:4;stroke-dasharray:none"
     inkscape:connector-curvature="0" />
  <path
     d="M 72.366669,8.3556203 A 7.9534029,7.9534029 0 0 1 56.459864,8.3556203 7.9534029,7.9534029 0 1 1 72.366669,8.3556203 z"
     id="path4055-3"
     style="opacity:0.98999999;fill:#ffff00;fill-opacity:1;stroke:#000000;stroke-width:0.7953403;stroke-miterlimit:4;stroke-dasharray:none"
     inkscape:connector-curvature="0" />
  <path
     d="M 66.76045,8.3556203 A 7.9534028,7.9534028 0 0 1 50.853645,8.3556203 7.9534028,7.9534028 0 1 1 66.76045,8.3556203 z"
     id="path4055-1"
     style="opacity:0.98999999;fill:#ffff00;fill-opacity:1;stroke:#000000;stroke-width:0.7953403;stroke-miterlimit:4;stroke-dasharray:none"
     inkscape:connector-curvature="0" />
  <path
     d="M 61.15423,8.3556203 A 7.9534036,7.9534036 0 0 1 45.247424,8.3556203 7.9534036,7.9534036 0 1 1 61.15423,8.3556203 z"
     id="path4055-3-5"
     style="opacity:0.98999999;fill:#ffff00;fill-opacity:1;stroke:#000000;stroke-width:0.7953403;stroke-miterlimit:4;stroke-dasharray:none"
     inkscape:connector-curvature="0" />
  <path
     d="M 55.548011,8.3556203 A 7.9534036,7.9534036 0 0 1 39.641205,8.3556203 7.9534036,7.9534036 0 1 1 55.548011,8.3556203 z"
     id="path4055-5"
     style="opacity:0.98999999;fill:#ffff00;fill-opacity:1;stroke:#000000;stroke-width:0.7953403;stroke-miterlimit:4;stroke-dasharray:none"
     inkscape:connector-curvature="0" />
  <path
     d="M 49.941793,8.3556203 A 7.9534045,7.9534045 0 0 1 34.034984,8.3556203 7.9534045,7.9534045 0 1 1 49.941793,8.3556203 z"
     id="path4055-3-4"
     style="opacity:0.98999999;fill:#ffff00;fill-opacity:1;stroke:#000000;stroke-width:0.7953403;stroke-miterlimit:4;stroke-dasharray:none"
     inkscape:connector-curvature="0" />
  <path
     d="M 44.335571,8.3556203 A 7.953403,7.953403 0 0 1 28.428765,8.3556203 7.953403,7.953403 0 1 1 44.335571,8.3556203 z"
     id="path4055-1-3"
     style="opacity:0.98999999;fill:#ffff00;fill-opacity:1;stroke:#000000;stroke-width:0.7953403;stroke-miterlimit:4;stroke-dasharray:none"
     inkscape:connector-curvature="0" />
  <path
     d="M 38.729352,8.3556203 A 7.9534029,7.9534029 0 0 1 22.822547,8.3556203 7.9534029,7.9534029 0 1 1 38.729352,8.3556203 z"
     id="path4055-3-5-5"
     style="opacity:0.98999999;fill:#ffff00;fill-opacity:1;stroke:#000000;stroke-width:0.7953403;stroke-miterlimit:4;stroke-dasharray:none"
     inkscape:connector-curvature="0" />
  <path
     d="M 33.123134,8.3556203 A 7.953403,7.953403 0 0 1 17.216328,8.3556203 7.953403,7.953403 0 1 1 33.123134,8.3556203 z"
     id="path4055-8"
     style="opacity:0.98999999;fill:#ffff00;fill-opacity:1;stroke:#000000;stroke-width:0.7953403;stroke-miterlimit:4;stroke-dasharray:none"
     inkscape:connector-curvature="0" />
  <path
     d="M 27.516914,8.3556203 A 7.953403,7.953403 0 0 1 11.610108,8.3556203 7.953403,7.953403 0 1 1 27.516914,8.3556203 z"
     id="path4055-3-52"
     style="opacity:0.98999999;fill:#ffff00;fill-opacity:1;stroke:#000000;stroke-width:0.7953403;stroke-miterlimit:4;stroke-dasharray:none"
     inkscape:connector-curvature="0" />
  <path
     d="M 21.910695,8.3556203 A 7.953403,7.953403 0 0 1 6.0038894,8.3556203 7.953403,7.953403 0 1 1 21.910695,8.3556203 z"
     id="path4055-1-8"
     style="opacity:0.98999999;fill:#ffff00;fill-opacity:1;stroke:#000000;stroke-width:0.7953403;stroke-miterlimit:4;stroke-dasharray:none"
     inkscape:connector-curvature="0" />
  <path
     d="M 16.304476,8.3556203 A 7.9534031,7.9534031 0 0 1 0.39767033,8.3556203 7.9534031,7.9534031 0 1 1 16.304476,8.3556203 z"
     id="path4055-3-5-8"
     style="opacity:0.98999999;fill:#ffff00;fill-opacity:1;stroke:#000000;stroke-width:0.7953403;stroke-miterlimit:4;stroke-dasharray:none"
     inkscape:connector-curvature="0" />
  <path
     d="M 86.385732,114.52595 A 7.9534028,7.9534028 0 0 1 70.478929,114.52595 7.9534028,7.9534028 0 1 1 86.385732,114.52595 z"
     id="path4055-2"
     style="opacity:0.98999999;fill:#ffff00;fill-opacity:1;stroke:#000000;stroke-width:0.7953403;stroke-miterlimit:4;stroke-dasharray:none"
     inkscape:connector-curvature="0" />
  <path
     d="M 80.779518,114.52595 A 7.9534043,7.9534043 0 0 1 64.87271,114.52595 7.9534043,7.9534043 0 1 1 80.779518,114.52595 z"
     id="path4055-3-49"
     style="opacity:0.98999999;fill:#ffff00;fill-opacity:1;stroke:#000000;stroke-width:0.7953403;stroke-miterlimit:4;stroke-dasharray:none"
     inkscape:connector-curvature="0" />
  <path
     d="M 75.173295,114.52595 A 7.9534028,7.9534028 0 0 1 59.266491,114.52595 7.9534028,7.9534028 0 1 1 75.173295,114.52595 z"
     id="path4055-1-0"
     style="opacity:0.98999999;fill:#ffff00;fill-opacity:1;stroke:#000000;stroke-width:0.7953403;stroke-miterlimit:4;stroke-dasharray:none"
     inkscape:connector-curvature="0" />
  <path
     d="M 69.567077,114.52595 A 7.953403,7.953403 0 0 1 53.660271,114.52595 7.953403,7.953403 0 1 1 69.567077,114.52595 z"
     id="path4055-3-5-10"
     style="opacity:0.98999999;fill:#ffff00;fill-opacity:1;stroke:#000000;stroke-width:0.7953403;stroke-miterlimit:4;stroke-dasharray:none"
     inkscape:connector-curvature="0" />
  <path
     d="M 63.960859,114.52595 A 7.953403,7.953403 0 0 1 48.054053,114.52595 7.953403,7.953403 0 1 1 63.960859,114.52595 z"
     id="path4055-5-8"
     style="opacity:0.98999999;fill:#ffff00;fill-opacity:1;stroke:#000000;stroke-width:0.7953403;stroke-miterlimit:4;stroke-dasharray:none"
     inkscape:connector-curvature="0" />
  <path
     d="M 58.35464,114.52595 A 7.953404,7.953404 0 0 1 42.447832,114.52595 7.953404,7.953404 0 1 1 58.35464,114.52595 z"
     id="path4055-3-4-0"
     style="opacity:0.98999999;fill:#ffff00;fill-opacity:1;stroke:#000000;stroke-width:0.7953403;stroke-miterlimit:4;stroke-dasharray:none"
     inkscape:connector-curvature="0" />
  <path
     d="M 52.74842,114.52595 A 7.9534043,7.9534043 0 0 1 36.841612,114.52595 7.9534043,7.9534043 0 1 1 52.74842,114.52595 z"
     id="path4055-1-3-4"
     style="opacity:0.98999999;fill:#ffff00;fill-opacity:1;stroke:#000000;stroke-width:0.7953403;stroke-miterlimit:4;stroke-dasharray:none"
     inkscape:connector-curvature="0" />
  <path
     d="M 47.1422,114.52595 A 7.9534043,7.9534043 0 0 1 31.235393,114.52595 7.9534043,7.9534043 0 1 1 47.1422,114.52595 z"
     id="path4055-3-5-5-2"
     style="opacity:0.98999999;fill:#ffff00;fill-opacity:1;stroke:#000000;stroke-width:0.7953403;stroke-miterlimit:4;stroke-dasharray:none"
     inkscape:connector-curvature="0" />
  <path
     d="M 41.53598,114.52595 A 7.953403,7.953403 0 0 1 25.629174,114.52595 7.953403,7.953403 0 1 1 41.53598,114.52595 z"
     id="path4055-8-6"
     style="opacity:0.98999999;fill:#ffff00;fill-opacity:1;stroke:#000000;stroke-width:0.7953403;stroke-miterlimit:4;stroke-dasharray:none"
     inkscape:connector-curvature="0" />
  <path
     d="M 35.92976,114.52595 A 7.953403,7.953403 0 0 1 20.022954,114.52595 7.953403,7.953403 0 1 1 35.92976,114.52595 z"
     id="path4055-3-52-0"
     style="opacity:0.98999999;fill:#ffff00;fill-opacity:1;stroke:#000000;stroke-width:0.7953403;stroke-miterlimit:4;stroke-dasharray:none"
     inkscape:connector-curvature="0" />
  <path
     d="M 30.323541,114.52595 A 7.9534029,7.9534029 0 0 1 14.416736,114.52595 7.9534029,7.9534029 0 1 1 30.323541,114.52595 z"
     id="path4055-1-8-5"
     style="opacity:0.98999999;fill:#ffff00;fill-opacity:1;stroke:#000000;stroke-width:0.7953403;stroke-miterlimit:4;stroke-dasharray:none"
     inkscape:connector-curvature="0" />
  <path
     d="M 24.717323,114.52595 A 7.9534031,7.9534031 0 0 1 8.810517,114.52595 7.9534031,7.9534031 0 1 1 24.717323,114.52595 z"
     id="path4055-3-5-8-1"
     style="opacity:0.98999999;fill:#ffff00;fill-opacity:1;stroke:#000000;stroke-width:0.7953403;stroke-miterlimit:4;stroke-dasharray:none"
     inkscape:connector-curvature="0" />
  <text
     x="51.348728"
     y="96.697708"
     id="text3027-5"
     xml:space="preserve"
     style="font-size:11.21243763px;font-style:normal;font-variant:normal;font-weight:normal;font-stretch:normal;text-align:center;line-height:125%;writing-mode:lr-tb;text-anchor:middle;fill:#000000;fill-opacity:1;stroke:none;font-family:Nimbus Roman No9 L;-inkscape-font-specification:Nimbus Roman No9 L"
     sodipodi:linespacing="125%"><tspan
       x="51.348728"
       y="96.697708"
       id="tspan3031-4">Completed products</tspan></text>
  <path
     d="M 28.630773,22.435558 78.742723,22.435558"
     id="path3107"
     style="fill:none;stroke:#000000;stroke-width:0.58636236px;stroke-linecap:butt;stroke-linejoin:miter;stroke-opacity:1;marker-end:url(#Arrow1Lend)"
     inkscape:connector-curvature="0" />
  <path
     d="M 74.556793,102.34872 24.444846,102.34872"
     id="path3107-6"
     style="fill:none;stroke:#000000;stroke-width:0.58636236px;stroke-linecap:butt;stroke-linejoin:miter;stroke-opacity:1;marker-end:url(#Arrow1Lend)"
     inkscape:connector-curvature="0" />
  <text
     xml:space="preserve"
     style="font-size:8.40932846px;font-style:normal;font-variant:normal;font-weight:normal;font-stretch:normal;text-align:center;line-height:125%;writing-mode:lr-tb;text-anchor:middle;fill:#000000;fill-opacity:1;stroke:none;font-family:Nimbus Roman No9 L;-inkscape-font-specification:Nimbus Roman No9 L"
     x="130.40858"
     y="121.20512"
     id="text3068"
     sodipodi:linespacing="125%"><tspan
       sodipodi:role="line"
       id="tspan3070"
       x="130.40858"
       y="121.20512">carry out</tspan></text>
  <text
     xml:space="preserve"
     style="font-size:8.40932846px;font-style:normal;font-variant:normal;font-weight:normal;font-stretch:normal;text-align:center;line-height:125%;writing-mode:lr-tb;text-anchor:middle;fill:#000000;fill-opacity:1;stroke:none;font-family:Nimbus Roman No9 L;-inkscape-font-specification:Nimbus Roman No9 L"
     x="121.77243"
     y="8.6504841"
     id="text3068-2"
     sodipodi:linespacing="125%"><tspan
       sodipodi:role="line"
       id="tspan3070-1"
       x="122.82359"
       y="8.6504841">carry in </tspan></text>
  <text
     xml:space="preserve"
     style="font-size:13.08117771px;font-style:normal;font-variant:normal;font-weight:normal;font-stretch:normal;text-align:center;line-height:125%;writing-mode:lr-tb;text-anchor:middle;fill:#000000;fill-opacity:1;stroke:none;font-family:Nimbus Roman No9 L;-inkscape-font-specification:Nimbus Roman No9 L"
     x="45.251034"
     y="38.613014"
     id="text3166"
     sodipodi:linespacing="125%"><tspan
       sodipodi:role="line"
       x="45.251034"
       y="38.613014"
       id="tspan3170">1000 products</tspan><tspan
       sodipodi:role="line"
       x="45.251034"
       y="54.964485"
       id="tspan3174">in queue</tspan></text>
</svg>
