<?xml version="1.0" encoding="UTF-8" standalone="no"?>
<!-- Created with Inkscape (http://www.inkscape.org/) -->

<svg
   xmlns:dc="http://purl.org/dc/elements/1.1/"
   xmlns:cc="http://creativecommons.org/ns#"
   xmlns:rdf="http://www.w3.org/1999/02/22-rdf-syntax-ns#"
   xmlns:svg="http://www.w3.org/2000/svg"
   xmlns="http://www.w3.org/2000/svg"
   xmlns:sodipodi="http://sodipodi.sourceforge.net/DTD/sodipodi-0.dtd"
   xmlns:inkscape="http://www.inkscape.org/namespaces/inkscape"
   width="82.646095"
   height="70.994415"
   id="svg3214"
   version="1.1"
   inkscape:version="0.48.4 r9939"
   sodipodi:docname="deadlock.svg">
  <defs
     id="defs3216">
    <marker
       inkscape:stockid="Arrow1Mend"
       orient="auto"
       refY="0"
       refX="0"
       id="Arrow1Mend"
       style="overflow:visible">
      <path
         id="path3828"
         d="M 0,0 5,-5 -12.5,0 5,5 0,0 z"
         style="fill-rule:evenodd;stroke:#000000;stroke-width:1pt"
         transform="matrix(-0.4,0,0,-0.4,-4,0)"
         inkscape:connector-curvature="0" />
    </marker>
    <marker
       inkscape:stockid="Arrow1Lend"
       orient="auto"
       refY="0"
       refX="0"
       id="Arrow1Lend"
       style="overflow:visible">
      <path
         id="path3822"
         d="M 0,0 5,-5 -12.5,0 5,5 0,0 z"
         style="fill-rule:evenodd;stroke:#000000;stroke-width:1pt"
         transform="matrix(-0.8,0,0,-0.8,-10,0)"
         inkscape:connector-curvature="0" />
    </marker>
  </defs>
  <sodipodi:namedview
     id="base"
     pagecolor="#ffffff"
     bordercolor="#666666"
     borderopacity="1.0"
     inkscape:pageopacity="0.0"
     inkscape:pageshadow="2"
     inkscape:zoom="5.6"
     inkscape:cx="59.898817"
     inkscape:cy="34.848427"
     inkscape:document-units="px"
     inkscape:current-layer="layer1"
     showgrid="true"
     fit-margin-top="0"
     fit-margin-left="0"
     fit-margin-right="0"
     fit-margin-bottom="0"
     inkscape:snap-bbox="true"
     inkscape:window-width="1440"
     inkscape:window-height="825"
     inkscape:window-x="0"
     inkscape:window-y="25"
     inkscape:window-maximized="1"
     inkscape:snap-global="false">
    <inkscape:grid
       type="xygrid"
       id="grid3364"
       empspacing="5"
       visible="true"
       enabled="true"
       snapvisiblegridlinesonly="true"
       originx="-44.999986px"
       originy="2.5129255px" />
  </sodipodi:namedview>
  <metadata
     id="metadata3219">
    <rdf:RDF>
      <cc:Work
         rdf:about="">
        <dc:format>image/svg+xml</dc:format>
        <dc:type
           rdf:resource="http://purl.org/dc/dcmitype/StillImage" />
        <dc:title></dc:title>
      </cc:Work>
    </rdf:RDF>
  </metadata>
  <g
     inkscape:label="レイヤー 1"
     inkscape:groupmode="layer"
     id="layer1"
     transform="translate(120.41812,-145.33101)">
    <g
       id="g3267"
       transform="translate(0.06250427,-0.66937671)">
      <rect
         y="164.44678"
         x="-91.520119"
         height="11.051054"
         width="11.051054"
         id="rect3217-2-4"
         style="color:#000000;fill:#edd400;stroke:#000000;stroke-width:0.11901135px;stroke-linecap:butt;stroke-linejoin:miter;stroke-miterlimit:4;stroke-opacity:1;stroke-dasharray:none;stroke-dashoffset:0;marker:none;visibility:visible;display:inline;overflow:visible;enable-background:accumulate" />
      <rect
         y="166.58899"
         x="-78.904953"
         height="11.051054"
         width="11.051054"
         id="rect3217-4-1-7"
         style="color:#000000;fill:#816647;stroke:#000000;stroke-width:0.11901135px;stroke-linecap:butt;stroke-linejoin:miter;stroke-miterlimit:4;stroke-opacity:1;stroke-dasharray:none;stroke-dashoffset:0;marker:none;visibility:visible;display:inline;overflow:visible;enable-background:accumulate" />
      <rect
         y="164.20877"
         x="-65.813705"
         height="11.051054"
         width="11.051054"
         id="rect3217-4-5-0-2"
         style="color:#000000;fill:#edd400;stroke:#000000;stroke-width:0.11901135px;stroke-linecap:butt;stroke-linejoin:miter;stroke-miterlimit:4;stroke-opacity:1;stroke-dasharray:none;stroke-dashoffset:0;marker:none;visibility:visible;display:inline;overflow:visible;enable-background:accumulate" />
      <rect
         y="181.3804"
         x="-48.94809"
         height="11.051054"
         width="11.051054"
         id="rect3217-4-8-0-3"
         style="color:#000000;fill:#edd400;stroke:#000000;stroke-width:0.11901135px;stroke-linecap:butt;stroke-linejoin:miter;stroke-miterlimit:4;stroke-opacity:1;stroke-dasharray:none;stroke-dashoffset:0;marker:none;visibility:visible;display:inline;overflow:visible;enable-background:accumulate" />
      <rect
         y="198.48886"
         x="-91.652443"
         height="11.051054"
         width="11.051054"
         id="rect3217-0-1-6"
         style="color:#000000;fill:#edd400;stroke:#000000;stroke-width:0.11901135px;stroke-linecap:butt;stroke-linejoin:miter;stroke-miterlimit:4;stroke-opacity:1;stroke-dasharray:none;stroke-dashoffset:0;marker:none;visibility:visible;display:inline;overflow:visible;enable-background:accumulate" />
      <rect
         y="195.62778"
         x="-78.904953"
         height="11.051054"
         width="11.051054"
         id="rect3217-4-87-2-9"
         style="color:#000000;fill:#816647;stroke:#000000;stroke-width:0.11901135px;stroke-linecap:butt;stroke-linejoin:miter;stroke-miterlimit:4;stroke-opacity:1;stroke-dasharray:none;stroke-dashoffset:0;marker:none;visibility:visible;display:inline;overflow:visible;enable-background:accumulate" />
      <path
         transform="matrix(0.11901135,0,0,0.11901135,-177.41359,127.88845)"
         d="m 957.14285,499.80878 c 0,95.46636 -77.39078,172.85714 -172.85714,172.85714 -95.46637,0 -172.85715,-77.39078 -172.85715,-172.85714 0,-95.46637 77.39078,-172.85715 172.85715,-172.85715 95.46636,0 172.85714,77.39078 172.85714,172.85715 z"
         sodipodi:ry="172.85715"
         sodipodi:rx="172.85715"
         sodipodi:cy="499.80878"
         sodipodi:cx="784.28571"
         id="path3293-1-6-4-8-8-9"
         style="color:#000000;fill:#cc0000;fill-opacity:0.0813397;stroke:#000000;stroke-width:1px;stroke-linecap:butt;stroke-linejoin:miter;stroke-miterlimit:4;stroke-opacity:1;stroke-dasharray:none;stroke-dashoffset:0;marker:none;visibility:visible;display:inline;overflow:visible;enable-background:accumulate"
         sodipodi:type="arc" />
      <path
         transform="matrix(0.11901135,0,0,0.11901135,-154.56072,127.88845)"
         d="m 957.14285,499.80878 c 0,95.46636 -77.39078,172.85714 -172.85714,172.85714 -95.46637,0 -172.85715,-77.39078 -172.85715,-172.85714 0,-95.46637 77.39078,-172.85715 172.85715,-172.85715 95.46636,0 172.85714,77.39078 172.85714,172.85715 z"
         sodipodi:ry="172.85715"
         sodipodi:rx="172.85715"
         sodipodi:cy="499.80878"
         sodipodi:cx="784.28571"
         id="path3293-1-6-4-78-9-0"
         style="color:#000000;fill:#cc0000;fill-opacity:0.0813397;stroke:#000000;stroke-width:1px;stroke-linecap:butt;stroke-linejoin:miter;stroke-miterlimit:4;stroke-opacity:1;stroke-dasharray:none;stroke-dashoffset:0;marker:none;visibility:visible;display:inline;overflow:visible;enable-background:accumulate"
         sodipodi:type="arc" />
      <rect
         y="197.53195"
         x="-65.813705"
         height="11.051054"
         width="11.051054"
         id="rect3217-4-5-4-5-5"
         style="color:#000000;fill:#edd400;stroke:#000000;stroke-width:0.11901135px;stroke-linecap:butt;stroke-linejoin:miter;stroke-miterlimit:4;stroke-opacity:1;stroke-dasharray:none;stroke-dashoffset:0;marker:none;visibility:visible;display:inline;overflow:visible;enable-background:accumulate" />
      <rect
         y="169.29227"
         x="-52.535423"
         height="11.051054"
         width="11.051054"
         id="rect3217-4-87-0-4-5"
         style="color:#000000;fill:#8ae234;stroke:#000000;stroke-width:0.11901135px;stroke-linecap:butt;stroke-linejoin:miter;stroke-miterlimit:4;stroke-opacity:1;stroke-dasharray:none;stroke-dashoffset:0;marker:none;visibility:visible;display:inline;overflow:visible;enable-background:accumulate" />
      <rect
         y="193.60458"
         x="-51.515335"
         height="11.051054"
         width="11.051054"
         id="rect3217-4-87-5-4-1"
         style="color:#000000;fill:#8ae234;stroke:#000000;stroke-width:0.11901135px;stroke-linecap:butt;stroke-linejoin:miter;stroke-miterlimit:4;stroke-opacity:1;stroke-dasharray:none;stroke-dashoffset:0;marker:none;visibility:visible;display:inline;overflow:visible;enable-background:accumulate" />
      <rect
         y="181.3634"
         x="-106.63456"
         height="11.051054"
         width="11.051054"
         id="rect3217-4-87-3-5-7"
         style="color:#000000;fill:#8ae234;stroke:#000000;stroke-width:0.11901135px;stroke-linecap:butt;stroke-linejoin:miter;stroke-miterlimit:4;stroke-opacity:1;stroke-dasharray:none;stroke-dashoffset:0;marker:none;visibility:visible;display:inline;overflow:visible;enable-background:accumulate" />
      <rect
         y="195.15164"
         x="-104.22387"
         height="11.051054"
         width="11.051054"
         id="rect3217-4-87-5-8-5-1-7"
         style="color:#000000;fill:#816647;stroke:#000000;stroke-width:0.11901135px;stroke-linecap:butt;stroke-linejoin:miter;stroke-miterlimit:4;stroke-opacity:1;stroke-dasharray:none;stroke-dashoffset:0;marker:none;visibility:visible;display:inline;overflow:visible;enable-background:accumulate" />
      <rect
         y="167.11011"
         x="-105.35563"
         height="11.051054"
         width="11.051054"
         id="rect3217-4-87-5-8-8-4"
         style="color:#000000;fill:#816647;stroke:#000000;stroke-width:0.11901135px;stroke-linecap:butt;stroke-linejoin:miter;stroke-miterlimit:4;stroke-opacity:1;stroke-dasharray:none;stroke-dashoffset:0;marker:none;visibility:visible;display:inline;overflow:visible;enable-background:accumulate" />
      <rect
         y="159.54437"
         x="-120.41813"
         height="6.6306305"
         width="26.028543"
         id="rect2997-9-7"
         style="fill:none;stroke:#000000;stroke-width:0.11901135" />
      <path
         d="m 548.57142,333.38019 c 0,27.21975 -22.06597,49.28571 -49.28571,49.28571 -27.21975,0 -49.28572,-22.06596 -49.28572,-49.28571 0,-27.21975 22.06597,-49.28572 49.28572,-49.28572 27.21974,0 49.28571,22.06597 49.28571,49.28572 z"
         sodipodi:ry="49.285713"
         sodipodi:rx="49.285713"
         sodipodi:cy="333.38019"
         sodipodi:cx="499.28571"
         id="path3219-3-3-6-1-8-6-9"
         style="color:#000000;fill:#cc0000;stroke:#000000;stroke-width:1px;stroke-linecap:butt;stroke-linejoin:miter;stroke-miterlimit:4;stroke-opacity:1;stroke-dasharray:none;stroke-dashoffset:0;marker:none;visibility:visible;display:inline;overflow:visible;enable-background:accumulate"
         sodipodi:type="arc"
         transform="matrix(0.11901135,0,0,0.11901135,-143.49536,147.69534)" />
      <path
         d="m 548.57142,333.38019 c 0,27.21975 -22.06597,49.28571 -49.28571,49.28571 -27.21975,0 -49.28572,-22.06596 -49.28572,-49.28571 0,-27.21975 22.06597,-49.28572 49.28572,-49.28572 27.21974,0 49.28571,22.06597 49.28571,49.28572 z"
         sodipodi:ry="49.285713"
         sodipodi:rx="49.285713"
         sodipodi:cy="333.38019"
         sodipodi:cx="499.28571"
         id="path3219-3-3-6-1-54-5-5"
         style="color:#000000;fill:#cc0000;stroke:#000000;stroke-width:1px;stroke-linecap:butt;stroke-linejoin:miter;stroke-miterlimit:4;stroke-opacity:1;stroke-dasharray:none;stroke-dashoffset:0;marker:none;visibility:visible;display:inline;overflow:visible;enable-background:accumulate"
         sodipodi:type="arc"
         transform="matrix(0.11901135,0,0,0.11901135,-120.64249,147.69534)" />
      <rect
         y="208.875"
         x="-120.35563"
         height="6.6306305"
         width="26.028543"
         id="rect2997-9-0-1"
         style="fill:none;stroke:#000000;stroke-width:0.11901135" />
    </g>
    <path
       sodipodi:type="arc"
       style="opacity:0.98999999;fill:#ffff00;fill-opacity:1;stroke:#000000;stroke-width:0.5;stroke-miterlimit:4;stroke-dasharray:none"
       id="path4055"
       sodipodi:cx="58.018665"
       sodipodi:cy="4.330626"
       sodipodi:rx="5"
       sodipodi:ry="5"
       d="m 63.018665,4.330626 c 0,2.7614238 -2.238576,5 -5,5 -2.761423,0 -5,-2.2385762 -5,-5 0,-2.7614237 2.238577,-4.99999999 5,-4.99999999 2.761424,0 5,2.23857629 5,4.99999999 z"
       transform="translate(-168.18679,159.23187)" />
    <path
       sodipodi:type="arc"
       style="opacity:0.98999999;fill:#ffff00;fill-opacity:1;stroke:#000000;stroke-width:0.5;stroke-miterlimit:4;stroke-dasharray:none"
       id="path4055-6"
       sodipodi:cx="58.018665"
       sodipodi:cy="4.330626"
       sodipodi:rx="5"
       sodipodi:ry="5"
       d="m 63.018665,4.330626 c 0,2.7614238 -2.238576,5 -5,5 -2.761423,0 -5,-2.2385762 -5,-5 0,-2.7614237 2.238577,-4.99999999 5,-4.99999999 2.761424,0 5,2.23857629 5,4.99999999 z"
       transform="translate(-131.45545,167.112)" />
    <path
       sodipodi:type="arc"
       style="opacity:0.98999999;fill:#ffff00;fill-opacity:1;stroke:#000000;stroke-width:0.5;stroke-miterlimit:4;stroke-dasharray:none"
       id="path4055-9"
       sodipodi:cx="58.018665"
       sodipodi:cy="4.330626"
       sodipodi:rx="5"
       sodipodi:ry="5"
       d="m 63.018665,4.330626 c 0,2.7614238 -2.238576,5 -5,5 -2.761423,0 -5,-2.2385762 -5,-5 0,-2.7614237 2.238577,-4.99999999 5,-4.99999999 2.761424,0 5,2.23857629 5,4.99999999 z"
       transform="translate(-101.45545,181.93343)" />
    <path
       sodipodi:type="arc"
       style="opacity:0.98999999;fill:#ffff00;fill-opacity:1;stroke:#000000;stroke-width:0.5;stroke-miterlimit:4;stroke-dasharray:none"
       id="path4055-4"
       sodipodi:cx="58.018665"
       sodipodi:cy="4.330626"
       sodipodi:rx="5"
       sodipodi:ry="5"
       d="m 63.018665,4.330626 c 0,2.7614238 -2.238576,5 -5,5 -2.761423,0 -5,-2.2385762 -5,-5 0,-2.7614237 2.238577,-4.99999999 5,-4.99999999 2.761424,0 5,2.23857629 5,4.99999999 z"
       transform="translate(-118.0626,198.36199)" />
    <text
       xml:space="preserve"
       style="font-size:8px;font-style:normal;font-variant:normal;font-weight:bold;font-stretch:normal;text-align:start;line-height:125%;writing-mode:lr-tb;text-anchor:start;opacity:0.98999999;fill:#000000;fill-opacity:1;stroke:none;font-family:Coda;-inkscape-font-specification:Coda Ultra-Bold"
       x="-106.31097"
       y="152.04976"
       id="text4449"
       sodipodi:linespacing="125%"><tspan
         sodipodi:role="line"
         id="tspan4451"
         x="-106.31097"
         y="152.04976">身動きが取れない</tspan></text>
    <path
       sodipodi:type="arc"
       style="opacity:0.98999999;fill:#ffff00;fill-opacity:1;stroke:#000000;stroke-width:0.5;stroke-miterlimit:4;stroke-dasharray:none"
       id="path4055-0"
       sodipodi:cx="58.018665"
       sodipodi:cy="4.330626"
       sodipodi:rx="5"
       sodipodi:ry="5"
       d="m 63.018665,4.330626 c 0,2.7614238 -2.238576,5 -5,5 -2.761423,0 -5,-2.2385762 -5,-5 0,-2.7614237 2.238577,-4.99999999 5,-4.99999999 2.761424,0 5,2.23857629 5,4.99999999 z"
       transform="translate(-157.7225,168.07629)" />
    <path
       sodipodi:type="arc"
       style="opacity:0.98999999;fill:#ffff00;fill-opacity:1;stroke:#000000;stroke-width:0.5;stroke-miterlimit:4;stroke-dasharray:none"
       id="path4055-49"
       sodipodi:cx="58.018665"
       sodipodi:cy="4.330626"
       sodipodi:rx="5"
       sodipodi:ry="5"
       d="m 63.018665,4.330626 c 0,2.7614238 -2.238576,5 -5,5 -2.761423,0 -5,-2.2385762 -5,-5 0,-2.7614237 2.238577,-4.99999999 5,-4.99999999 2.761424,0 5,2.23857629 5,4.99999999 z"
       transform="translate(-144.68679,164.32628)" />
    <path
       sodipodi:type="arc"
       style="opacity:0.98999999;fill:#ffff00;fill-opacity:1;stroke:#000000;stroke-width:0.5;stroke-miterlimit:4;stroke-dasharray:none"
       id="path4055-90"
       sodipodi:cx="58.018665"
       sodipodi:cy="4.330626"
       sodipodi:rx="5"
       sodipodi:ry="5"
       d="m 63.018665,4.330626 c 0,2.7614238 -2.238576,5 -5,5 -2.761423,0 -5,-2.2385762 -5,-5 0,-2.7614237 2.238577,-4.99999999 5,-4.99999999 2.761424,0 5,2.23857629 5,4.99999999 z"
       transform="translate(-117.90107,164.32628)" />
    <path
       sodipodi:type="arc"
       style="opacity:0.98999999;fill:#ffff00;fill-opacity:1;stroke:#000000;stroke-width:0.5;stroke-miterlimit:4;stroke-dasharray:none"
       id="path4055-66"
       sodipodi:cx="58.018665"
       sodipodi:cy="4.330626"
       sodipodi:rx="5"
       sodipodi:ry="5"
       d="m 63.018665,4.330626 c 0,2.7614238 -2.238576,5 -5,5 -2.761423,0 -5,-2.2385762 -5,-5 0,-2.7614237 2.238577,-4.99999999 5,-4.99999999 2.761424,0 5,2.23857629 5,4.99999999 z"
       transform="translate(-132.18679,195.75486)" />
    <path
       sodipodi:type="arc"
       style="opacity:0.98999999;fill:#ffff00;fill-opacity:1;stroke:#000000;stroke-width:0.5;stroke-miterlimit:4;stroke-dasharray:none"
       id="path4055-96"
       sodipodi:cx="58.018665"
       sodipodi:cy="4.330626"
       sodipodi:rx="5"
       sodipodi:ry="5"
       d="m 63.018665,4.330626 c 0,2.7614238 -2.238576,5 -5,5 -2.761423,0 -5,-2.2385762 -5,-5 0,-2.7614237 2.238577,-4.99999999 5,-4.99999999 2.761424,0 5,2.23857629 5,4.99999999 z"
       transform="translate(-145.04393,198.43343)" />
    <path
       sodipodi:type="arc"
       style="opacity:0.98999999;fill:#ffff00;fill-opacity:1;stroke:#000000;stroke-width:0.5;stroke-miterlimit:4;stroke-dasharray:none"
       id="path4055-5"
       sodipodi:cx="58.018665"
       sodipodi:cy="4.330626"
       sodipodi:rx="5"
       sodipodi:ry="5"
       d="m 63.018665,4.330626 c 0,2.7614238 -2.238576,5 -5,5 -2.761423,0 -5,-2.2385762 -5,-5 0,-2.7614237 2.238577,-4.99999999 5,-4.99999999 2.761424,0 5,2.23857629 5,4.99999999 z"
       transform="translate(-156.4725,194.50486)" />
    <path
       sodipodi:type="arc"
       style="opacity:0.98999999;fill:#ffff00;fill-opacity:1;stroke:#000000;stroke-width:0.5;stroke-miterlimit:4;stroke-dasharray:none"
       id="path4055-1"
       sodipodi:cx="58.018665"
       sodipodi:cy="4.330626"
       sodipodi:rx="5"
       sodipodi:ry="5"
       d="m 63.018665,4.330626 c 0,2.7614238 -2.238576,5 -5,5 -2.761423,0 -5,-2.2385762 -5,-5 0,-2.7614237 2.238577,-4.99999999 5,-4.99999999 2.761424,0 5,2.23857629 5,4.99999999 z"
       transform="translate(-167.95128,206.7448)" />
  </g>
</svg>
