<?xml version="1.0" encoding="UTF-8" standalone="no"?>
<!-- Created with Inkscape (http://www.inkscape.org/) -->

<svg
   xmlns:dc="http://purl.org/dc/elements/1.1/"
   xmlns:cc="http://creativecommons.org/ns#"
   xmlns:rdf="http://www.w3.org/1999/02/22-rdf-syntax-ns#"
   xmlns:svg="http://www.w3.org/2000/svg"
   xmlns="http://www.w3.org/2000/svg"
   xmlns:xlink="http://www.w3.org/1999/xlink"
   xmlns:sodipodi="http://sodipodi.sourceforge.net/DTD/sodipodi-0.dtd"
   xmlns:inkscape="http://www.inkscape.org/namespaces/inkscape"
   version="1.1"
   width="130"
   height="94.100853"
   id="model2a"
   inkscape:version="0.48.4 r9939"
   sodipodi:docname="model2a-products.svg">
  <sodipodi:namedview
     pagecolor="#ffffff"
     bordercolor="#666666"
     borderopacity="1"
     objecttolerance="10"
     gridtolerance="10"
     guidetolerance="10"
     inkscape:pageopacity="0"
     inkscape:pageshadow="2"
     inkscape:window-width="1024"
     inkscape:window-height="691"
     id="namedview81"
     showgrid="false"
     inkscape:zoom="2.7943272"
     inkscape:cx="149.29214"
     inkscape:cy="67.415334"
     inkscape:window-x="0"
     inkscape:window-y="25"
     inkscape:window-maximized="1"
     inkscape:current-layer="model2a"
     fit-margin-top="0"
     fit-margin-left="0"
     fit-margin-right="0"
     fit-margin-bottom="0" />
  <defs
     id="defs43">
    <marker
       refX="0"
       refY="0"
       orient="auto"
       id="Arrow1Lend"
       style="overflow:visible">
      <path
         d="M 0,0 5,-5 -12.5,0 5,5 0,0 z"
         transform="matrix(-0.8,0,0,-0.8,-10,0)"
         id="path3884"
         style="fill-rule:evenodd;stroke:#000000;stroke-width:1pt"
         inkscape:connector-curvature="0" />
    </marker>
    <marker
       refX="0"
       refY="0"
       orient="auto"
       id="Arrow1Lend-6"
       style="overflow:visible">
      <path
         d="M 0,0 5,-5 -12.5,0 5,5 0,0 z"
         transform="matrix(-0.8,0,0,-0.8,-10,0)"
         id="path3884-2"
         style="fill-rule:evenodd;stroke:#000000;stroke-width:1pt"
         inkscape:connector-curvature="0" />
    </marker>
  </defs>
  <metadata
     id="metadata3219">
    <rdf:RDF>
      <cc:Work
         rdf:about="">
        <dc:format>image/svg+xml</dc:format>
        <dc:type
           rdf:resource="http://purl.org/dc/dcmitype/StillImage" />
        <dc:title></dc:title>
      </cc:Work>
    </rdf:RDF>
  </metadata>
  <script
     xlink:href="arm-move.js"
     id="script39"
     type="text/javascript" />
  <rect
     width="18.700224"
     height="18.700224"
     x="82.489296"
     y="9.8777771"
     id="rect3217"
     style="color:#000000;fill:#816647;stroke:#000000;stroke-width:0.20139249px;stroke-linecap:butt;stroke-linejoin:miter;stroke-miterlimit:4;stroke-dasharray:none;stroke-dashoffset:0;enable-background:accumulate" />
  <rect
     width="18.700224"
     height="18.700224"
     x="82.263115"
     y="67.481094"
     id="rect3217-0"
     style="color:#000000;fill:#816647;stroke:#000000;stroke-width:0.20139249px;stroke-linecap:butt;stroke-linejoin:miter;stroke-miterlimit:4;stroke-dasharray:none;stroke-dashoffset:0;enable-background:accumulate" />
  <path
     d="M 129.89931,48.669251 C 129.89931,67.895133 114.31355,83.48149 95.087071,83.48149 75.861188,83.48149 60.274829,67.89573 60.274829,48.669251 60.274829,29.443368 75.860582,13.857008 95.087071,13.857008 114.31295,13.857008 129.89931,29.442768 129.89931,48.669251 z"
     id="path3293-1-6-4-8"
     style="color:#000000;fill:#cc0000;fill-opacity:0.0813397;stroke:#000000;stroke-width:0.20138979px;stroke-linecap:butt;stroke-linejoin:miter;stroke-miterlimit:4;stroke-dasharray:none;stroke-dashoffset:0;enable-background:accumulate"
     inkscape:connector-curvature="0" />
  <rect
     width="67.531418"
     height="11.970213"
     x="11.961083"
     y="81.340469"
     id="rect2997-6"
     style="fill:#eeeeee;stroke:#000000;stroke-width:0.20139249" />
  <rect
     width="67.906403"
     height="12.345268"
     x="9.7272367"
     y="0.45512009"
     id="rect2997"
     style="fill:#eeeeee;stroke:#000000;stroke-width:0.20139249" />
  <path
     d="M 105.01357,48.668969 C 105.01357,54.150794 100.5697,58.594659 95.087866,58.594659 89.606042,58.594659 85.162175,54.150794 85.162175,48.668969 85.162175,43.18713 89.606042,38.743261 95.087866,38.743261 100.5697,38.743261 105.01357,43.18713 105.01357,48.668969 z"
     id="armbase1"
     style="color:#000000;fill:#cc0000;stroke:#000000;stroke-width:0.20138979px;stroke-linecap:butt;stroke-linejoin:miter;stroke-miterlimit:4;stroke-dasharray:none;stroke-dashoffset:0;enable-background:accumulate"
     inkscape:connector-curvature="0" />
  <rect
     width="29.915556"
     height="5.7413898"
     x="65.130562"
     y="46.037109"
     id="arm1"
     style="opacity:0.98999999;fill:#cccccf;stroke:#000000;stroke-width:0.16921945;stroke-miterlimit:4;stroke-dasharray:none" />
  <path
     d="M 59.626324,6.402291 A 6.082014,6.082014 0 0 1 47.462299,6.402291 6.082014,6.082014 0 1 1 59.626324,6.402291 z"
     id="path4055"
     style="opacity:0.98999999;fill:#ffff00;fill-opacity:1;stroke:#000000;stroke-width:0.60820138;stroke-miterlimit:4;stroke-dasharray:none"
     inkscape:connector-curvature="0" />
  <path
     d="M 55.339218,6.402291 A 6.0820141,6.0820141 0 0 1 43.175191,6.402291 6.0820141,6.0820141 0 1 1 55.339218,6.402291 z"
     id="path4055-3"
     style="opacity:0.98999999;fill:#ffff00;fill-opacity:1;stroke:#000000;stroke-width:0.60820138;stroke-miterlimit:4;stroke-dasharray:none"
     inkscape:connector-curvature="0" />
  <path
     d="M 51.052109,6.402291 A 6.082014,6.082014 0 0 1 38.888082,6.402291 6.082014,6.082014 0 1 1 51.052109,6.402291 z"
     id="path4055-1"
     style="opacity:0.98999999;fill:#ffff00;fill-opacity:1;stroke:#000000;stroke-width:0.60820138;stroke-miterlimit:4;stroke-dasharray:none"
     inkscape:connector-curvature="0" />
  <path
     d="M 46.765,6.402291 A 6.0820146,6.0820146 0 0 1 34.600972,6.402291 6.0820146,6.0820146 0 1 1 46.765,6.402291 z"
     id="path4055-3-5"
     style="opacity:0.98999999;fill:#ffff00;fill-opacity:1;stroke:#000000;stroke-width:0.60820138;stroke-miterlimit:4;stroke-dasharray:none"
     inkscape:connector-curvature="0" />
  <path
     d="M 42.477891,6.402291 A 6.0820146,6.0820146 0 0 1 30.313863,6.402291 6.0820146,6.0820146 0 1 1 42.477891,6.402291 z"
     id="path4055-5"
     style="opacity:0.98999999;fill:#ffff00;fill-opacity:1;stroke:#000000;stroke-width:0.60820138;stroke-miterlimit:4;stroke-dasharray:none"
     inkscape:connector-curvature="0" />
  <path
     d="M 38.190783,6.402291 A 6.0820153,6.0820153 0 0 1 26.026753,6.402291 6.0820153,6.0820153 0 1 1 38.190783,6.402291 z"
     id="path4055-3-4"
     style="opacity:0.98999999;fill:#ffff00;fill-opacity:1;stroke:#000000;stroke-width:0.60820138;stroke-miterlimit:4;stroke-dasharray:none"
     inkscape:connector-curvature="0" />
  <path
     d="M 33.903672,6.402291 A 6.0820141,6.0820141 0 0 1 21.739644,6.402291 6.0820141,6.0820141 0 1 1 33.903672,6.402291 z"
     id="path4055-1-3"
     style="opacity:0.98999999;fill:#ffff00;fill-opacity:1;stroke:#000000;stroke-width:0.60820138;stroke-miterlimit:4;stroke-dasharray:none"
     inkscape:connector-curvature="0" />
  <path
     d="M 29.616564,6.402291 A 6.0820141,6.0820141 0 0 1 17.452536,6.402291 6.0820141,6.0820141 0 1 1 29.616564,6.402291 z"
     id="path4055-3-5-5"
     style="opacity:0.98999999;fill:#ffff00;fill-opacity:1;stroke:#000000;stroke-width:0.60820138;stroke-miterlimit:4;stroke-dasharray:none"
     inkscape:connector-curvature="0" />
  <path
     d="M 25.329456,6.402291 A 6.0820145,6.0820145 0 0 1 13.165427,6.402291 6.0820145,6.0820145 0 1 1 25.329456,6.402291 z"
     id="path4055-8"
     style="opacity:0.98999999;fill:#ffff00;fill-opacity:1;stroke:#000000;stroke-width:0.60820138;stroke-miterlimit:4;stroke-dasharray:none"
     inkscape:connector-curvature="0" />
  <path
     d="M 21.042346,6.402291 A 6.0820141,6.0820141 0 0 1 8.8783181,6.402291 6.0820141,6.0820141 0 1 1 21.042346,6.402291 z"
     id="path4055-3-52"
     style="opacity:0.98999999;fill:#ffff00;fill-opacity:1;stroke:#000000;stroke-width:0.60820138;stroke-miterlimit:4;stroke-dasharray:none"
     inkscape:connector-curvature="0" />
  <path
     d="M 16.755238,6.402291 A 6.0820142,6.0820142 0 0 1 4.5912097,6.402291 6.0820142,6.0820142 0 1 1 16.755238,6.402291 z"
     id="path4055-1-8"
     style="opacity:0.98999999;fill:#ffff00;fill-opacity:1;stroke:#000000;stroke-width:0.60820138;stroke-miterlimit:4;stroke-dasharray:none"
     inkscape:connector-curvature="0" />
  <path
     d="M 12.468129,6.402291 A 6.0820142,6.0820142 0 0 1 0.30410092,6.402291 6.0820142,6.0820142 0 1 1 12.468129,6.402291 z"
     id="path4055-3-5-8"
     style="opacity:0.98999999;fill:#ffff00;fill-opacity:1;stroke:#000000;stroke-width:0.60820138;stroke-miterlimit:4;stroke-dasharray:none"
     inkscape:connector-curvature="0" />
  <path
     d="M 66.059678,87.59137 A 6.082014,6.082014 0 0 1 53.895652,87.59137 6.082014,6.082014 0 1 1 66.059678,87.59137 z"
     id="path4055-2"
     style="opacity:0.98999999;fill:#ffff00;fill-opacity:1;stroke:#000000;stroke-width:0.60820138;stroke-miterlimit:4;stroke-dasharray:none"
     inkscape:connector-curvature="0" />
  <path
     d="M 61.772573,87.59137 A 6.0820151,6.0820151 0 0 1 49.608543,87.59137 6.0820151,6.0820151 0 1 1 61.772573,87.59137 z"
     id="path4055-3-49"
     style="opacity:0.98999999;fill:#ffff00;fill-opacity:1;stroke:#000000;stroke-width:0.60820138;stroke-miterlimit:4;stroke-dasharray:none"
     inkscape:connector-curvature="0" />
  <path
     d="M 57.485462,87.59137 A 6.082014,6.082014 0 0 1 45.321435,87.59137 6.082014,6.082014 0 1 1 57.485462,87.59137 z"
     id="path4055-1-0"
     style="opacity:0.98999999;fill:#ffff00;fill-opacity:1;stroke:#000000;stroke-width:0.60820138;stroke-miterlimit:4;stroke-dasharray:none"
     inkscape:connector-curvature="0" />
  <path
     d="M 53.198354,87.59137 A 6.0820145,6.0820145 0 0 1 41.034325,87.59137 6.0820145,6.0820145 0 1 1 53.198354,87.59137 z"
     id="path4055-3-5-10"
     style="opacity:0.98999999;fill:#ffff00;fill-opacity:1;stroke:#000000;stroke-width:0.60820138;stroke-miterlimit:4;stroke-dasharray:none"
     inkscape:connector-curvature="0" />
  <path
     d="M 48.911246,87.59137 A 6.0820145,6.0820145 0 0 1 36.747217,87.59137 6.0820145,6.0820145 0 1 1 48.911246,87.59137 z"
     id="path4055-5-8"
     style="opacity:0.98999999;fill:#ffff00;fill-opacity:1;stroke:#000000;stroke-width:0.60820138;stroke-miterlimit:4;stroke-dasharray:none"
     inkscape:connector-curvature="0" />
  <path
     d="M 44.624137,87.59137 A 6.082015,6.082015 0 0 1 32.460107,87.59137 6.082015,6.082015 0 1 1 44.624137,87.59137 z"
     id="path4055-3-4-0"
     style="opacity:0.98999999;fill:#ffff00;fill-opacity:1;stroke:#000000;stroke-width:0.60820138;stroke-miterlimit:4;stroke-dasharray:none"
     inkscape:connector-curvature="0" />
  <path
     d="M 40.337028,87.59137 A 6.0820151,6.0820151 0 0 1 28.172998,87.59137 6.0820151,6.0820151 0 1 1 40.337028,87.59137 z"
     id="path4055-1-3-4"
     style="opacity:0.98999999;fill:#ffff00;fill-opacity:1;stroke:#000000;stroke-width:0.60820138;stroke-miterlimit:4;stroke-dasharray:none"
     inkscape:connector-curvature="0" />
  <path
     d="M 36.049918,87.59137 A 6.0820151,6.0820151 0 0 1 23.885889,87.59137 6.0820151,6.0820151 0 1 1 36.049918,87.59137 z"
     id="path4055-3-5-5-2"
     style="opacity:0.98999999;fill:#ffff00;fill-opacity:1;stroke:#000000;stroke-width:0.60820138;stroke-miterlimit:4;stroke-dasharray:none"
     inkscape:connector-curvature="0" />
  <path
     d="M 31.762809,87.59137 A 6.0820145,6.0820145 0 0 1 19.59878,87.59137 6.0820145,6.0820145 0 1 1 31.762809,87.59137 z"
     id="path4055-8-6"
     style="opacity:0.98999999;fill:#ffff00;fill-opacity:1;stroke:#000000;stroke-width:0.60820138;stroke-miterlimit:4;stroke-dasharray:none"
     inkscape:connector-curvature="0" />
  <path
     d="M 27.475699,87.59137 A 6.0820141,6.0820141 0 0 1 15.311671,87.59137 6.0820141,6.0820141 0 1 1 27.475699,87.59137 z"
     id="path4055-3-52-0"
     style="opacity:0.98999999;fill:#ffff00;fill-opacity:1;stroke:#000000;stroke-width:0.60820138;stroke-miterlimit:4;stroke-dasharray:none"
     inkscape:connector-curvature="0" />
  <path
     d="M 23.18859,87.59137 A 6.0820141,6.0820141 0 0 1 11.024563,87.59137 6.0820141,6.0820141 0 1 1 23.18859,87.59137 z"
     id="path4055-1-8-5"
     style="opacity:0.98999999;fill:#ffff00;fill-opacity:1;stroke:#000000;stroke-width:0.60820138;stroke-miterlimit:4;stroke-dasharray:none"
     inkscape:connector-curvature="0" />
  <path
     d="M 18.901482,87.59137 A 6.0820142,6.0820142 0 0 1 6.7374543,87.59137 6.0820142,6.0820142 0 1 1 18.901482,87.59137 z"
     id="path4055-3-5-8-1"
     style="opacity:0.98999999;fill:#ffff00;fill-opacity:1;stroke:#000000;stroke-width:0.60820138;stroke-miterlimit:4;stroke-dasharray:none"
     inkscape:connector-curvature="0" />
  <text
     x="39.266674"
     y="73.958008"
     id="text3027-5"
     xml:space="preserve"
     style="font-size:8.57421684px;font-style:normal;font-variant:normal;font-weight:normal;font-stretch:normal;text-align:center;line-height:125%;writing-mode:lr-tb;text-anchor:middle;fill:#000000;fill-opacity:1;stroke:none;font-family:Nimbus Roman No9 L;-inkscape-font-specification:Nimbus Roman No9 L"
     sodipodi:linespacing="125%"><tspan
       x="39.266674"
       y="73.958008"
       id="tspan3031-4">Completed products</tspan></text>
  <path
     d="M 21.894121,17.169302 60.215024,17.169302"
     id="path3107"
     style="fill:none;stroke:#000000;stroke-width:0.44839475px;stroke-linecap:butt;stroke-linejoin:miter;stroke-opacity:1;marker-end:url(#Arrow1Lend)"
     inkscape:connector-curvature="0" />
  <path
     d="M 57.014019,78.27937 18.693118,78.27937"
     id="path3107-6"
     style="fill:none;stroke:#000000;stroke-width:0.44839475px;stroke-linecap:butt;stroke-linejoin:miter;stroke-opacity:1;marker-end:url(#Arrow1Lend)"
     inkscape:connector-curvature="0" />
  <text
     xml:space="preserve"
     style="font-size:6.43066311px;font-style:normal;font-variant:normal;font-weight:normal;font-stretch:normal;text-align:center;line-height:125%;writing-mode:lr-tb;text-anchor:middle;fill:#000000;fill-opacity:1;stroke:none;font-family:Nimbus Roman No9 L;-inkscape-font-specification:Nimbus Roman No9 L"
     x="99.724213"
     y="92.698967"
     id="text3068"
     sodipodi:linespacing="125%"><tspan
       sodipodi:role="line"
       id="tspan3070"
       x="99.724213"
       y="92.698967">carry out</tspan></text>
  <text
     xml:space="preserve"
     style="font-size:6.43066311px;font-style:normal;font-variant:normal;font-weight:normal;font-stretch:normal;text-align:center;line-height:125%;writing-mode:lr-tb;text-anchor:middle;fill:#000000;fill-opacity:1;stroke:none;font-family:Nimbus Roman No9 L;-inkscape-font-specification:Nimbus Roman No9 L"
     x="93.120094"
     y="6.6277733"
     id="text3068-2"
     sodipodi:linespacing="125%"><tspan
       sodipodi:role="line"
       id="tspan3070-1"
       x="93.923927"
       y="6.6277733">carry in </tspan></text>
  <text
     xml:space="preserve"
     style="font-size:10.00325394px;font-style:normal;font-variant:normal;font-weight:normal;font-stretch:normal;text-align:center;line-height:125%;writing-mode:lr-tb;text-anchor:middle;fill:#000000;fill-opacity:1;stroke:none;font-family:Nimbus Roman No9 L;-inkscape-font-specification:Nimbus Roman No9 L"
     x="34.603733"
     y="29.540298"
     id="text3166"
     sodipodi:linespacing="125%"><tspan
       sodipodi:role="line"
       x="34.603733"
       y="29.540298"
       id="tspan3170">1000 products</tspan><tspan
       sodipodi:role="line"
       x="34.603733"
       y="42.044365"
       id="tspan3174">in queue</tspan></text>
</svg>
