<?xml version="1.0" encoding="UTF-8" standalone="no"?>
<!-- Created with Inkscape (http://www.inkscape.org/) -->

<svg
   xmlns:dc="http://purl.org/dc/elements/1.1/"
   xmlns:cc="http://creativecommons.org/ns#"
   xmlns:rdf="http://www.w3.org/1999/02/22-rdf-syntax-ns#"
   xmlns:svg="http://www.w3.org/2000/svg"
   xmlns="http://www.w3.org/2000/svg"
   xmlns:sodipodi="http://sodipodi.sourceforge.net/DTD/sodipodi-0.dtd"
   xmlns:inkscape="http://www.inkscape.org/namespaces/inkscape"
   width="37.37014"
   height="7.9690075"
   id="svg3262"
   version="1.1"
   inkscape:version="0.48.4 r9939"
   sodipodi:docname="products.svg">
  <defs
     id="defs3264" />
  <sodipodi:namedview
     id="base"
     pagecolor="#ffffff"
     bordercolor="#666666"
     borderopacity="1.0"
     inkscape:pageopacity="0.0"
     inkscape:pageshadow="2"
     inkscape:zoom="1.4"
     inkscape:cx="-43.457788"
     inkscape:cy="-4.586923"
     inkscape:document-units="px"
     inkscape:current-layer="layer1"
     showgrid="false"
     fit-margin-top="0"
     fit-margin-left="0"
     fit-margin-right="0"
     fit-margin-bottom="0"
     inkscape:window-width="806"
     inkscape:window-height="466"
     inkscape:window-x="0"
     inkscape:window-y="52"
     inkscape:window-maximized="0" />
  <metadata
     id="metadata3267">
    <rdf:RDF>
      <cc:Work
         rdf:about="">
        <dc:format>image/svg+xml</dc:format>
        <dc:type
           rdf:resource="http://purl.org/dc/dcmitype/StillImage" />
        <dc:title></dc:title>
      </cc:Work>
    </rdf:RDF>
  </metadata>
  <g
     inkscape:label="レイヤー 1"
     inkscape:groupmode="layer"
     id="layer1"
     transform="translate(-475.60065,-499.80625)">
    <path
       d="M 512.78116,503.79314 A 3.792495,3.792495 0 0 1 505.19617,503.79314 3.792495,3.792495 0 1 1 512.78116,503.79314 z"
       id="path4055"
       style="opacity:0.98999999;fill:#ffff00;fill-opacity:1;stroke:#000000;stroke-width:0.37924922;stroke-miterlimit:4;stroke-dasharray:none"
       inkscape:connector-curvature="0" />
    <path
       d="M 510.10789,503.79314 A 3.792493,3.792493 0 0 1 502.52291,503.79314 3.792493,3.792493 0 1 1 510.10789,503.79314 z"
       id="path4055-3"
       style="opacity:0.98999999;fill:#ffff00;fill-opacity:1;stroke:#000000;stroke-width:0.37924922;stroke-miterlimit:4;stroke-dasharray:none"
       inkscape:connector-curvature="0" />
    <path
       d="M 507.43463,503.79314 A 3.792495,3.792495 0 0 1 499.84964,503.79314 3.792495,3.792495 0 1 1 507.43463,503.79314 z"
       id="path4055-1"
       style="opacity:0.98999999;fill:#ffff00;fill-opacity:1;stroke:#000000;stroke-width:0.37924922;stroke-miterlimit:4;stroke-dasharray:none"
       inkscape:connector-curvature="0" />
    <path
       d="M 504.76137,503.79314 A 3.792495,3.792495 0 0 1 497.17638,503.79314 3.792495,3.792495 0 1 1 504.76137,503.79314 z"
       id="path4055-3-5"
       style="opacity:0.98999999;fill:#ffff00;fill-opacity:1;stroke:#000000;stroke-width:0.37924922;stroke-miterlimit:4;stroke-dasharray:none"
       inkscape:connector-curvature="0" />
    <path
       d="M 502.0881,503.79314 A 3.792493,3.792493 0 0 1 494.50312,503.79314 3.792493,3.792493 0 1 1 502.0881,503.79314 z"
       id="path4055-5"
       style="opacity:0.98999999;fill:#ffff00;fill-opacity:1;stroke:#000000;stroke-width:0.37924922;stroke-miterlimit:4;stroke-dasharray:none"
       inkscape:connector-curvature="0" />
    <path
       d="M 499.41484,503.79314 A 3.792495,3.792495 0 0 1 491.82985,503.79314 3.792495,3.792495 0 1 1 499.41484,503.79314 z"
       id="path4055-3-4"
       style="opacity:0.98999999;fill:#ffff00;fill-opacity:1;stroke:#000000;stroke-width:0.37924922;stroke-miterlimit:4;stroke-dasharray:none"
       inkscape:connector-curvature="0" />
    <path
       d="M 496.74157,503.79314 A 3.792492,3.792492 0 0 1 489.15659,503.79314 3.792492,3.792492 0 1 1 496.74157,503.79314 z"
       id="path4055-1-3"
       style="opacity:0.98999999;fill:#ffff00;fill-opacity:1;stroke:#000000;stroke-width:0.37924922;stroke-miterlimit:4;stroke-dasharray:none"
       inkscape:connector-curvature="0" />
    <path
       d="M 494.06831,503.79314 A 3.792492,3.792492 0 0 1 486.48333,503.79314 3.792492,3.792492 0 1 1 494.06831,503.79314 z"
       id="path4055-3-5-5"
       style="opacity:0.98999999;fill:#ffff00;fill-opacity:1;stroke:#000000;stroke-width:0.37924922;stroke-miterlimit:4;stroke-dasharray:none"
       inkscape:connector-curvature="0" />
    <path
       d="M 491.39505,503.79314 A 3.792492,3.792492 0 0 1 483.81007,503.79314 3.792492,3.792492 0 1 1 491.39505,503.79314 z"
       id="path4055-8"
       style="opacity:0.98999999;fill:#ffff00;fill-opacity:1;stroke:#000000;stroke-width:0.37924922;stroke-miterlimit:4;stroke-dasharray:none"
       inkscape:connector-curvature="0" />
    <path
       d="M 488.72178,503.79314 A 3.792492,3.792492 0 0 1 481.1368,503.79314 3.792492,3.792492 0 1 1 488.72178,503.79314 z"
       id="path4055-3-52"
       style="opacity:0.98999999;fill:#ffff00;fill-opacity:1;stroke:#000000;stroke-width:0.37924922;stroke-miterlimit:4;stroke-dasharray:none"
       inkscape:connector-curvature="0" />
    <path
       d="M 486.04852,503.79314 A 3.792493,3.792493 0 0 1 478.46354,503.79314 3.792493,3.792493 0 1 1 486.04852,503.79314 z"
       id="path4055-1-8"
       style="opacity:0.98999999;fill:#ffff00;fill-opacity:1;stroke:#000000;stroke-width:0.37924922;stroke-miterlimit:4;stroke-dasharray:none"
       inkscape:connector-curvature="0" />
    <path
       d="M 483.37526,503.79314 A 3.792495,3.792495 0 0 1 475.79027,503.79314 3.792495,3.792495 0 1 1 483.37526,503.79314 z"
       id="path4055-3-5-8"
       style="opacity:0.98999999;fill:#ffff00;fill-opacity:1;stroke:#000000;stroke-width:0.37924922;stroke-miterlimit:4;stroke-dasharray:none"
       inkscape:connector-curvature="0" />
  </g>
</svg>
